<svg xmlns="http://www.w3.org/2000/svg" width="256" height="256" viewBox="0 0 100 100"><rect width="100" height="100" rx="20" fill="#f8e71c"></rect><path fill="#000000" d="M26.73 42.39L26.73 42.39Q25.66 42.39 24.41 42.54Q23.17 42.70 21.96 42.87L21.96 42.87Q21.10 43.00 20.31 43.08Q19.51 43.17 18.87 43.21L18.87 43.21Q18.57 44.16 18.27 44.89Q17.97 45.62 17.62 46.30L17.62 46.30Q17.28 47.04 17 47.79Q16.72 48.54 16.46 49.40L16.46 49.40Q16.03 50.09 15.75 50.67Q15.47 51.25 15.30 51.98L15.30 51.98Q14.79 52.62 14.53 53.33Q14.27 54.04 14.14 54.55L14.14 54.55L13.97 55.07Q13.71 55.33 13.67 55.48Q13.63 55.63 13.46 55.76L13.46 55.76Q13.41 56.23 13.15 56.70L13.15 56.70Q13.07 56.92 13.03 57.11Q12.98 57.30 12.98 57.39L12.98 57.39Q12.98 57.82 12.77 57.95L12.77 57.95Q12.81 58.16 12.77 58.40Q12.72 58.64 12.68 58.85L12.68 58.85Q12.55 59.37 12.60 59.67L12.60 59.67Q12.72 59.84 12.83 59.97Q12.94 60.10 12.98 60.31L12.98 60.31Q13.24 60.48 13.37 60.53L13.37 60.53Q13.54 60.66 13.88 60.83L13.88 60.83L14.27 61.26Q14.49 62.50 13.88 63.23L13.88 63.23Q13.24 64.05 11.69 64.05L11.69 64.05L11.18 64.05Q10.96 63.84 10.92 63.71L10.92 63.71Q10.58 63.58 10.36 63.49Q10.15 63.41 9.97 63.15L9.97 63.15Q9.42 62.89 9.07 62.72L9.07 62.72L8.69 62.50Q8.69 62.03 8.69 61.99L8.69 61.99Q8.38 61.60 8.23 61.13Q8.08 60.66 8.00 60.18L8.00 60.18Q7.91 59.80 7.80 59.45Q7.70 59.11 7.53 58.85L7.53 58.85Q7.44 56.36 8.00 54.64Q8.56 52.92 9.16 51.33L9.16 51.33Q9.50 50.47 9.85 49.59Q10.19 48.71 10.45 47.77L10.45 47.77L10.83 47.34Q11.13 46.65 11.33 46.20Q11.52 45.75 11.74 45.27L11.74 45.27Q11.87 44.97 11.97 44.69Q12.08 44.41 12.17 44.20L12.17 44.20Q11.91 44.20 11.69 44.22Q11.48 44.24 11.26 44.29L11.26 44.29Q11.01 44.33 10.79 44.35Q10.58 44.37 10.36 44.37L10.36 44.37Q10.06 44.37 9.93 44.33L9.93 44.33Q9.46 44.54 8.90 44.54L8.90 44.54L8.47 44.54Q8.34 44.54 8.23 44.52Q8.13 44.50 8.04 44.50L8.04 44.50Q7.61 44.50 7.35 44.63L7.35 44.63Q6.84 44.63 6.37 44.63L6.37 44.63L5.94 44.63Q5.85 44.63 5.72 44.65Q5.59 44.67 5.51 44.67L5.51 44.67Q5.21 44.67 4.86 44.61Q4.52 44.54 4.13 44.33L4.13 44.33Q3.62 43.64 3.44 43.60L3.44 43.60L3.06 43.08Q3.01 42.82 2.93 42.59Q2.84 42.35 2.76 42.05L2.76 42.05Q2.58 41.62 2.43 41.13Q2.28 40.63 2.28 39.95L2.28 39.95Q2.33 39.60 2.46 39.43Q2.58 39.26 2.67 39.13L2.67 39.13L2.80 38.48L3.36 38.53L4.56 38.53Q5.94 38.53 7.35 38.42Q8.77 38.31 10.28 38.18L10.28 38.18Q11.13 38.10 12.02 38.01Q12.90 37.93 13.84 37.84L13.84 37.84Q14.01 37.45 14.19 37.11L14.19 37.11L14.62 36.89Q15.39 36.85 15.71 37.09Q16.03 37.32 16.25 37.54L16.25 37.54Q17.19 37.45 18.16 37.35Q19.13 37.24 20.12 37.07L20.12 37.07Q21.58 36.85 23.06 36.68Q24.54 36.51 25.92 36.51L25.92 36.51Q26.52 36.51 27.08 36.55Q27.63 36.59 28.11 36.68L28.11 36.68L28.54 36.98Q28.67 37.24 28.90 37.45Q29.14 37.67 29.40 37.88L29.40 37.88Q29.91 38.36 30.43 39Q30.94 39.64 30.81 40.89L30.81 40.89Q30.47 41.41 30.30 41.49L30.30 41.49L29.91 42.01L29.48 41.96Q29.22 41.96 29.01 42.03Q28.79 42.09 28.58 42.18L28.58 42.18Q28.41 42.27 28.24 42.33Q28.06 42.39 27.85 42.44L27.85 42.44Q27.46 42.44 27.23 42.42Q26.99 42.39 26.73 42.39ZM47.10 50.17L47.10 50.17Q47.06 50.69 47.19 51.16Q47.31 51.63 47.51 52.08Q47.70 52.54 47.87 53.01Q48.04 53.48 48.13 53.95L48.13 53.95Q48.22 54.55 48.13 55.26Q48.04 55.97 47.83 56.64Q47.62 57.30 47.27 57.84Q46.93 58.38 46.46 58.64L46.46 58.64Q45.85 59.41 44.99 59.84Q44.13 60.27 43.40 60.87L43.40 60.87Q42.93 61.17 42.35 61.30Q41.77 61.43 41.17 61.56L41.17 61.56Q40.70 61.82 40.05 62.10Q39.41 62.38 38.72 62.61Q38.03 62.85 37.35 62.96Q36.66 63.06 36.14 63.02L36.14 63.02Q34.85 63.49 33.63 63.64Q32.40 63.79 30.77 63.45L30.77 63.45Q29.22 63.66 27.91 63.32Q26.60 62.98 25.59 62.22Q24.58 61.47 23.83 60.42Q23.08 59.37 22.61 58.21L22.61 58.21Q22.26 55.76 22.78 53.76Q23.29 51.76 24.26 50.06Q25.23 48.37 26.47 46.93Q27.72 45.49 28.88 44.11L28.88 44.11Q29.14 44.20 29.29 44.09Q29.44 43.98 29.57 43.79Q29.70 43.60 29.85 43.43Q30.00 43.25 30.21 43.21L30.21 43.21Q30.51 42.57 31.09 42.24Q31.67 41.92 32.02 41.32L32.02 41.32Q32.40 41.23 32.66 41.06Q32.92 40.89 33.16 40.68Q33.39 40.46 33.65 40.27Q33.91 40.07 34.25 39.99L34.25 39.99L34.25 39.52Q35.03 39.17 35.39 38.72Q35.76 38.27 36.27 37.63L36.27 37.63Q36.66 37.58 36.89 37.58Q37.13 37.58 37.60 37.50L37.60 37.50Q37.95 36.89 38.23 36.59Q38.51 36.29 39.06 35.95L39.06 35.95Q39.58 36.21 40.20 36.29Q40.83 36.38 41.30 36.85L41.30 36.85Q41.34 37.28 41.56 37.52Q41.77 37.75 42.03 37.95Q42.29 38.14 42.52 38.36Q42.76 38.57 42.85 38.96L42.85 38.96Q43.02 39 43.08 38.91Q43.15 38.83 43.32 38.87L43.32 38.87Q43.45 39.47 43.62 39.67Q43.79 39.86 43.96 40.42L43.96 40.42Q43.75 40.85 43.64 41.30Q43.53 41.75 43.10 41.96L43.10 41.96Q43.06 42.27 43.28 42.29Q43.49 42.31 43.53 42.52L43.53 42.52Q43.58 42.91 43.40 43.08L43.40 43.08Q44.44 44.76 45.25 46.63Q46.07 48.50 47.10 50.17ZM41.73 54.25L41.73 54.25Q41.90 53.78 42.18 53.48Q42.46 53.18 42.50 52.58L42.50 52.58Q42.29 52.23 42.24 52.04Q42.20 51.85 42.20 51.42L42.20 51.42Q41.26 50.09 40.57 48.56Q39.88 47.04 39.02 45.70L39.02 45.70Q38.94 45.88 38.72 46.05Q38.51 46.22 38.25 45.96L38.25 45.96Q38.16 46.30 37.95 46.46Q37.73 46.61 37.47 46.58Q37.22 46.56 36.94 46.46Q36.66 46.35 36.44 46.18L36.44 46.18Q35.20 47.16 33.95 48.11Q32.71 49.05 31.72 50.30L31.72 50.30Q31.54 50.39 31.50 50.37Q31.46 50.34 31.24 50.43L31.24 50.43Q30.90 51.25 30.41 51.91Q29.91 52.58 29.44 53.27Q28.97 53.95 28.62 54.73Q28.28 55.50 28.24 56.53L28.24 56.53Q28.97 57.13 29.96 57.26Q30.94 57.39 32.00 57.30Q33.05 57.22 34.06 57.03Q35.07 56.83 35.93 56.83L35.93 56.83Q37.73 56.40 39.02 55.69Q40.31 54.98 41.73 54.25ZM70.90 51.46L70.90 51.46Q70.86 51.68 70.82 51.83Q70.78 51.98 70.73 52.11Q70.69 52.23 70.69 52.43Q70.69 52.62 70.69 52.92L70.69 52.92Q69.40 55.20 67.45 56.75Q65.49 58.29 63.15 59.47Q60.81 60.66 58.27 61.62Q55.74 62.59 53.33 63.71L53.33 63.71Q52.30 63.45 51.76 62.85Q51.22 62.25 50.95 61.45Q50.67 60.66 50.56 59.69Q50.45 58.72 50.37 57.69L50.37 57.69Q50.49 57.22 50.73 56.90Q50.97 56.57 50.97 55.97L50.97 55.97Q51.31 54.86 51.65 53.78Q52.00 52.71 52.08 51.59L52.08 51.59Q52.21 51.25 52.56 51.12L52.56 51.12Q52.77 49.05 52.58 46.93Q52.38 44.80 51.87 42.95L51.87 42.95Q51.91 42.52 51.98 42.33Q52.04 42.14 51.96 42.05L51.96 42.05Q51.91 41.71 52.19 41.71Q52.47 41.71 52.77 41.71L52.77 41.71Q52.77 41.06 52.54 40.42Q52.30 39.77 52.08 38.96L52.08 38.96Q52.38 38.31 52.47 37.69Q52.56 37.07 52.86 36.59L52.86 36.59Q55.18 37.32 57.30 38.36Q59.43 39.39 61.49 39.86L61.49 39.86Q63.04 40.98 64.67 42.07Q66.31 43.17 67.64 44.48Q68.97 45.79 69.87 47.46Q70.78 49.14 70.90 51.46ZM60.72 53.82L60.72 53.82Q61.62 53.48 62.50 53.09Q63.38 52.71 64.14 52.21Q64.89 51.72 65.49 51.07Q66.09 50.43 66.48 49.53L66.48 49.53Q66.22 49.01 65.79 48.60Q65.36 48.20 64.93 47.83Q64.50 47.46 64.09 47.08Q63.69 46.69 63.43 46.13L63.43 46.13Q62.87 46.05 62.44 45.81Q62.01 45.57 61.60 45.34Q61.19 45.10 60.74 44.89Q60.29 44.67 59.69 44.63L59.69 44.63Q58.74 44.16 57.99 43.94Q57.24 43.73 56.85 43.38L56.85 43.38Q56.55 43.38 56.38 43.51L56.38 43.51Q56.81 45.14 57.03 46.58Q57.24 48.02 57.26 49.46Q57.28 50.90 57.11 52.41Q56.94 53.91 56.64 55.67L56.64 55.67Q57.07 55.63 57.43 55.48Q57.80 55.33 58.16 55.16Q58.53 54.98 58.94 54.83Q59.35 54.68 59.90 54.64L59.90 54.64Q60.03 54.38 60.27 54.21Q60.51 54.04 60.72 53.82ZM96.64 50.17L96.64 50.17Q96.60 50.69 96.73 51.16Q96.86 51.63 97.05 52.08Q97.24 52.54 97.42 53.01Q97.59 53.48 97.67 53.95L97.67 53.95Q97.76 54.55 97.67 55.26Q97.59 55.97 97.37 56.64Q97.16 57.30 96.81 57.84Q96.47 58.38 96.00 58.64L96.00 58.64Q95.40 59.41 94.54 59.84Q93.68 60.27 92.95 60.87L92.95 60.87Q92.47 61.17 91.89 61.30Q91.31 61.43 90.71 61.56L90.71 61.56Q90.24 61.82 89.60 62.10Q88.95 62.38 88.26 62.61Q87.58 62.85 86.89 62.96Q86.20 63.06 85.69 63.02L85.69 63.02Q84.40 63.49 83.17 63.64Q81.95 63.79 80.31 63.45L80.31 63.45Q78.77 63.66 77.46 63.32Q76.15 62.98 75.14 62.22Q74.13 61.47 73.38 60.42Q72.62 59.37 72.15 58.21L72.15 58.21Q71.81 55.76 72.32 53.76Q72.84 51.76 73.80 50.06Q74.77 48.37 76.02 46.93Q77.26 45.49 78.42 44.11L78.42 44.11Q78.68 44.20 78.83 44.09Q78.98 43.98 79.11 43.79Q79.24 43.60 79.39 43.43Q79.54 43.25 79.76 43.21L79.76 43.21Q80.06 42.57 80.64 42.24Q81.22 41.92 81.56 41.32L81.56 41.32Q81.95 41.23 82.21 41.06Q82.46 40.89 82.70 40.68Q82.94 40.46 83.19 40.27Q83.45 40.07 83.79 39.99L83.79 39.99L83.79 39.52Q84.57 39.17 84.93 38.72Q85.30 38.27 85.81 37.63L85.81 37.63Q86.20 37.58 86.44 37.58Q86.67 37.58 87.15 37.50L87.15 37.50Q87.49 36.89 87.77 36.59Q88.05 36.29 88.61 35.95L88.61 35.95Q89.12 36.21 89.75 36.29Q90.37 36.38 90.84 36.85L90.84 36.85Q90.88 37.28 91.10 37.52Q91.31 37.75 91.57 37.95Q91.83 38.14 92.07 38.36Q92.30 38.57 92.39 38.96L92.39 38.96Q92.56 39 92.63 38.91Q92.69 38.83 92.86 38.87L92.86 38.87Q92.99 39.47 93.16 39.67Q93.33 39.86 93.51 40.42L93.51 40.42Q93.29 40.85 93.18 41.30Q93.08 41.75 92.65 41.96L92.65 41.96Q92.60 42.27 92.82 42.29Q93.03 42.31 93.08 42.52L93.08 42.52Q93.12 42.91 92.95 43.08L92.95 43.08Q93.98 44.76 94.79 46.63Q95.61 48.50 96.64 50.17ZM91.27 54.25L91.27 54.25Q91.44 53.78 91.72 53.48Q92.00 53.18 92.04 52.58L92.04 52.58Q91.83 52.23 91.79 52.04Q91.74 51.85 91.74 51.42L91.74 51.42Q90.80 50.09 90.11 48.56Q89.42 47.04 88.56 45.70L88.56 45.70Q88.48 45.88 88.26 46.05Q88.05 46.22 87.79 45.96L87.79 45.96Q87.71 46.30 87.49 46.46Q87.28 46.61 87.02 46.58Q86.76 46.56 86.48 46.46Q86.20 46.35 85.99 46.18L85.99 46.18Q84.74 47.16 83.49 48.11Q82.25 49.05 81.26 50.30L81.26 50.30Q81.09 50.39 81.04 50.37Q81.00 50.34 80.79 50.43L80.79 50.43Q80.44 51.25 79.95 51.91Q79.46 52.58 78.98 53.27Q78.51 53.95 78.17 54.73Q77.82 55.50 77.78 56.53L77.78 56.53Q78.51 57.13 79.50 57.26Q80.49 57.39 81.54 57.30Q82.59 57.22 83.60 57.03Q84.61 56.83 85.47 56.83L85.47 56.83Q87.28 56.40 88.56 55.69Q89.85 54.98 91.27 54.25Z"></path></svg>